<svg width="128" height="40" viewBox="0 0 128 40" fill="none" xmlns="http://www.w3.org/2000/svg">
<path d="M20 0C28.6646 0.165039 32.9972 0.247128 35.9219 2.68164C36.4288 3.10365 36.8964 3.57116 37.3184 4.07812C39.7529 7.0028 39.835 11.3354 40 20C39.835 28.6646 39.7529 32.9972 37.3184 35.9219C36.8964 36.4288 36.4288 36.8964 35.9219 37.3184C32.9972 39.7529 28.6646 39.835 20 40C11.3354 39.835 7.0028 39.7529 4.07812 37.3184C3.57116 36.8964 3.10365 36.4288 2.68164 35.9219C0.247128 32.9972 0.165039 28.6646 0 20C0.165039 11.3354 0.247128 7.0028 2.68164 4.07812C3.10365 3.57116 3.57116 3.10365 4.07812 2.68164C7.0028 0.247128 11.3354 0.165039 20 0ZM18.4189 22.8574C17.7333 22.8574 17.1778 23.413 17.1777 24.0986C17.1777 24.7844 16.6213 25.3408 15.9355 25.3408C15.2499 25.3408 14.6945 25.8964 14.6943 26.582V29.8125C14.6943 30.4983 15.2498 31.0547 15.9355 31.0547H15.9697C16.6366 31.0547 17.1776 31.5949 17.1777 32.2617C17.1777 32.9286 17.7179 33.4697 18.3848 33.4697H21.6836C22.3505 33.4697 22.8916 32.9286 22.8916 32.2617C22.8917 31.5949 23.4318 31.0547 24.0986 31.0547C24.7655 31.0547 25.3066 30.5136 25.3066 29.8467V26.5479C25.3065 25.8811 24.7655 25.3408 24.0986 25.3408C23.4318 25.3408 22.8916 24.7997 22.8916 24.1328V24.0986C22.8915 23.413 22.3351 22.8574 21.6494 22.8574H18.4189ZM18.4189 6.53027C17.7332 6.53029 17.1777 7.0867 17.1777 7.77246C17.1777 8.45816 16.6213 9.01367 15.9355 9.01367C15.2498 9.01369 14.6943 9.5701 14.6943 10.2559V13.4863C14.6944 14.172 15.2498 14.7275 15.9355 14.7275H15.9697C16.6366 14.7275 17.1777 15.2687 17.1777 15.9355C17.1778 16.6024 17.7179 17.1426 18.3848 17.1426H21.6836C22.3504 17.1426 22.8915 16.6024 22.8916 15.9355C22.8916 15.2687 23.4318 14.7276 24.0986 14.7275C24.7655 14.7275 25.3066 14.1873 25.3066 13.5205V10.2217C25.3066 9.55478 24.7655 9.01367 24.0986 9.01367C23.4318 9.01365 22.8917 8.47346 22.8916 7.80664V7.77246C22.8916 7.08669 22.3352 6.53027 21.6494 6.53027H18.4189Z" fill="#B6FF00"/>
<path d="M114.286 15.1007C115.65 14.0762 117.346 13.4699 119.183 13.4698C123.692 13.4698 127.346 17.1246 127.347 21.6329C127.346 26.1412 123.692 29.796 119.183 29.796C117.346 29.796 115.65 29.1879 114.286 28.1632V29.3878H111.02V8.97961H114.286V15.1007ZM119.183 16.7355C116.479 16.7356 114.286 18.928 114.286 21.6329C114.286 24.3377 116.479 26.5313 119.183 26.5314C121.888 26.5314 124.082 24.3378 124.082 21.6329C124.082 18.9279 121.888 16.7355 119.183 16.7355Z" fill="white"/>
<path d="M108.572 29.3874H105.306V19.1833C105.306 17.3803 103.844 15.919 102.041 15.9186C100.294 15.9186 98.8673 17.2902 98.7797 19.0153L98.7758 19.1833V29.3874H95.5101V19.1833C95.5099 17.3803 94.0484 15.919 92.2455 15.9186C90.4986 15.9186 89.0714 17.2902 88.9838 19.0153L88.9799 19.1833V29.3874H85.7142V13.8776H88.9799V15.1852C90.0169 14.1268 91.462 13.4695 93.0609 13.4694C95.1394 13.4695 96.9583 14.5796 97.9584 16.239C98.9582 14.5793 100.778 13.4696 102.857 13.4694C106.013 13.4695 108.571 16.0276 108.572 19.1833V29.3874Z" fill="white"/>
<path d="M70.2043 21.8365H70.2102C70.3173 24.4467 72.4654 26.5307 75.1018 26.5309C77.7383 26.5308 79.8882 24.4468 79.9954 21.8365H80.0002V13.8776H83.2649V26.9391L83.2551 27.3453C83.05 31.5256 79.7002 34.8796 75.5217 35.0914L75.1018 35.1022V31.8375C77.3341 31.8374 79.2168 30.3429 79.8069 28.3004C78.4771 29.241 76.8549 29.7955 75.1018 29.7955C70.6619 29.7953 67.052 26.2504 66.9436 21.8365H66.9387V13.8776H70.2043V21.8365Z" fill="white"/>
<path d="M51.4288 8.97961L61.2247 23.4689V8.97961H64.4894V29.3878H61.2247L51.4288 14.8976V29.3878H48.1632V8.97961H51.4288Z" fill="white"/>
</svg>
