<svg width="57" height="57" viewBox="0 0 57 57" fill="none" xmlns="http://www.w3.org/2000/svg">
<path d="M0.504425 0.504425V0H0V0.504425H0.504425ZM0.504425 0.504425V1.00885H57V0.504425V0H0.504425V0.504425ZM0.504425 57H1.00885V0.504425H0.504425H0V57H0.504425Z" fill="#B6FF00"/>
<path d="M34.3009 26.2301L34.3009 27.2389L33.292 27.2389L33.292 28.2478L32.2832 28.2478L32.2832 29.2566L31.2743 29.2566L31.2743 30.2655L30.2655 30.2655L30.2655 31.2743L29.2566 31.2743L29.2566 32.2832L28.2478 32.2832L28.2478 31.2743L27.2389 31.2743L27.2389 30.2655L26.2301 30.2655L26.2301 29.2566L25.2212 29.2566L25.2212 28.2478L24.2124 28.2478L24.2124 27.2389L23.2035 27.2389L23.2035 26.2301L26.2301 26.2301L26.2301 27.2389L27.2389 27.2389L27.2389 28.2478L28.2478 28.2478L28.2478 29.2566L29.2566 29.2566L29.2566 28.2478L30.2655 28.2478L30.2655 27.2389L31.2743 27.2389L31.2743 26.2301L34.3009 26.2301Z" fill="#B6FF00"/>
</svg>
